<svg xmlns="http://www.w3.org/2000/svg" width="207" height="42" viewBox="0 0 207 42"><defs><style>.a{fill:rgba(0,0,0,0);stroke-linejoin:round;}.b,.d{fill:#fff;}.c,.d{stroke:none;}</style></defs><g transform="translate(-272 -1197)"><g class="a"><path class="c" d="M 293 1238.000122070312 C 289.7645263671875 1238.000122070312 286.8863830566406 1237.690551757812 284.4454956054688 1237.080078125 C 281.4966125488281 1236.342529296875 279.187255859375 1235.163330078125 277.5815734863281 1233.575317382812 C 273.7948608398438 1229.829956054688 273 1223.0380859375 273 1218 C 273 1212.9580078125 273.7971496582031 1206.160888671875 277.5948486328125 1202.411743164062 C 279.1996765136719 1200.827514648438 281.5074768066406 1199.651489257812 284.4541320800781 1198.916381835938 C 286.8914794921875 1198.308349609375 289.7667236328125 1198 293 1198 C 296.2466430664062 1198 299.1399230957031 1198.316162109375 301.5994873046875 1198.939575195312 C 304.5601196289062 1199.690063476562 306.8776550292969 1200.885864257812 308.4877624511719 1202.493774414062 C 312.2171630859375 1206.218383789062 313 1212.98193359375 313 1218 C 313 1221.239379882812 312.6881713867188 1224.122802734375 312.0731506347656 1226.5703125 C 311.3310852050781 1229.523193359375 310.1460571289062 1231.83544921875 308.5509948730469 1233.442749023438 C 304.8128967285156 1237.20947265625 298.0310363769531 1238.000122070312 293 1238.000122070312 Z"/><path class="d" d="M 293 1199 C 286.1141052246094 1199 281.0299987792969 1200.425903320312 278.2973937988281 1203.123291015625 C 276.7904968261719 1204.610961914062 275.65966796875 1206.785034179688 274.9362182617188 1209.585205078125 C 274.3150024414062 1211.989868164062 274 1214.820922851562 274 1218 C 274 1226.78271484375 276.3301086425781 1230.930908203125 278.2847900390625 1232.8642578125 C 281.0205078125 1235.569946289062 286.1089477539062 1237.000122070312 293 1237.000122070312 C 297.8410339355469 1237.000122070312 304.3455505371094 1236.2607421875 307.8412170410156 1232.73828125 C 310.5619201660156 1229.996826171875 312 1224.900390625 312 1218 C 312 1213.171020507812 311.26806640625 1206.683837890625 307.7810974121094 1203.201416015625 C 304.3040771484375 1199.728881835938 297.8239135742188 1199 293 1199 M 293 1197 C 298.7940979003906 1197 305.3949890136719 1197.991821289062 309.1943969726562 1201.786254882812 C 313.0003967285156 1205.587280273438 314 1212.196044921875 314 1218 C 314 1223.770141601562 313.0277099609375 1230.351440429688 309.2608032226562 1234.147094726562 C 305.4562072753906 1237.980834960938 298.8279113769531 1239.000122070312 293 1239.000122070312 C 287.2427978515625 1239.000122070312 280.6719970703125 1238.038208007812 276.8783874511719 1234.286254882812 C 273.0296936035156 1230.479614257812 272 1223.840942382812 272 1218 C 272 1212.152099609375 273.035400390625 1205.507690429688 276.8923034667969 1201.700073242188 C 280.684814453125 1197.956298828125 287.2499084472656 1197 293 1197 Z"/></g><circle class="b" cx="3" cy="3" r="3" transform="translate(290 1215)"/><path class="b" d="M296.75,1228h-7.5a6.257,6.257,0,0,1-6.251-6.25v-7.5a6.258,6.258,0,0,1,6.251-6.25h7.5a6.258,6.258,0,0,1,6.25,6.25v7.5A6.257,6.257,0,0,1,296.75,1228ZM293,1213a5,5,0,1,0,5,5A5.006,5.006,0,0,0,293,1213Zm5-2v2h2v-2Z"/><g class="a"><path class="c" d="M 348 1238.000122070312 C 344.7645263671875 1238.000122070312 341.8863525390625 1237.690551757812 339.4454650878906 1237.080078125 C 336.4965515136719 1236.342529296875 334.1872253417969 1235.163330078125 332.5816040039062 1233.575317382812 C 328.7947998046875 1229.829711914062 327.9999084472656 1223.037963867188 327.9999084472656 1218 C 327.9999084472656 1212.958129882812 328.797119140625 1206.161010742188 332.5949401855469 1202.411743164062 C 334.1996765136719 1200.827514648438 336.5074157714844 1199.651489257812 339.4541320800781 1198.916381835938 C 341.8914794921875 1198.308349609375 344.7667236328125 1198 348 1198 C 351.2466430664062 1198 354.1399536132812 1198.316162109375 356.5995483398438 1198.939575195312 C 359.5602111816406 1199.690063476562 361.8777465820312 1200.885864257812 363.4878540039062 1202.493774414062 C 367.2171936035156 1206.218505859375 368 1212.98193359375 368 1218 C 368 1221.239501953125 367.6881713867188 1224.122924804688 367.0731811523438 1226.5703125 C 366.3311462402344 1229.523193359375 365.1461486816406 1231.83544921875 363.5511169433594 1233.442749023438 C 359.8128967285156 1237.20947265625 353.031005859375 1238.000122070312 348 1238.000122070312 Z"/><path class="d" d="M 348 1199 C 341.114013671875 1199 336.0299682617188 1200.42578125 333.2974853515625 1203.123291015625 C 331.7905883789062 1204.610961914062 330.6596984863281 1206.785034179688 329.9362182617188 1209.585205078125 C 329.31494140625 1211.989990234375 328.9999084472656 1214.821044921875 328.9999084472656 1218 C 328.9999084472656 1226.782592773438 331.330078125 1230.930908203125 333.2847900390625 1232.8642578125 C 336.0204467773438 1235.569946289062 341.10888671875 1237.000122070312 348 1237.000122070312 C 352.8410339355469 1237.000122070312 359.3455505371094 1236.2607421875 362.84130859375 1232.73828125 C 365.5619506835938 1229.996826171875 367 1224.900512695312 367 1218 C 367 1213.171142578125 366.26806640625 1206.683837890625 362.7811889648438 1203.201416015625 C 359.3041687011719 1199.728881835938 352.8239440917969 1199 348 1199 M 348 1197 C 353.7940979003906 1197 360.3951110839844 1197.991821289062 364.1944885253906 1201.786254882812 C 368.0003051757812 1205.587280273438 369 1212.196044921875 369 1218 C 369 1223.770141601562 368.0278015136719 1230.351440429688 364.2608947753906 1234.147094726562 C 360.4562072753906 1237.980834960938 353.8279113769531 1239.000122070312 348 1239.000122070312 C 342.2427978515625 1239.000122070312 335.6719055175781 1238.038208007812 331.8783874511719 1234.286254882812 C 328.02978515625 1230.479614257812 326.9999084472656 1223.840942382812 326.9999084472656 1218 C 326.9999084472656 1212.152099609375 328.0354919433594 1205.507690429688 331.8923950195312 1201.700073242188 C 335.6846923828125 1197.956298828125 342.25 1197 348 1197 Z"/></g><path class="b" d="M353.509,1207.85l-2.638,0a4.629,4.629,0,0,0-4.879,5v2.3h-2.653a.415.415,0,0,0-.415.414v3.339a.415.415,0,0,0,.415.414h2.653v8.425a.414.414,0,0,0,.415.414h3.461a.414.414,0,0,0,.415-.414v-8.425h3.1a.414.414,0,0,0,.415-.414v-3.339a.415.415,0,0,0-.415-.414h-3.1v-1.953c0-.939.224-1.416,1.449-1.416h1.777a.414.414,0,0,0,.415-.414v-3.1A.415.415,0,0,0,353.509,1207.85Z"/><g class="a"><path class="c" d="M 403 1238.000122070312 C 399.7645568847656 1238.000122070312 396.8864440917969 1237.690551757812 394.4455261230469 1237.080078125 C 391.4966125488281 1236.342529296875 389.187255859375 1235.163330078125 387.5815734863281 1233.575317382812 C 383.7948608398438 1229.829956054688 383 1223.0380859375 383 1218 C 383 1212.958129882812 383.7971801757812 1206.160888671875 387.5949401855469 1202.411743164062 C 389.1996765136719 1200.827514648438 391.5074157714844 1199.651489257812 394.4540405273438 1198.916381835938 C 396.8913879394531 1198.308349609375 399.7666625976562 1198 403 1198 C 406.2466125488281 1198 409.139892578125 1198.316162109375 411.5994873046875 1198.939575195312 C 414.5600891113281 1199.68994140625 416.877685546875 1200.885864257812 418.4878540039062 1202.493896484375 C 422.2172546386719 1206.218505859375 423.0000915527344 1212.982055664062 423.0000915527344 1218 C 423.0000915527344 1221.2392578125 422.688232421875 1224.122802734375 422.0731506347656 1226.570190429688 C 421.3310546875 1229.523193359375 420.1460266113281 1231.83544921875 418.5509948730469 1233.442749023438 C 414.8127746582031 1237.20947265625 408.0309753417969 1238.000122070312 403 1238.000122070312 Z"/><path class="d" d="M 403 1199 C 396.114013671875 1199 391.0299682617188 1200.42578125 388.2974853515625 1203.123291015625 C 386.7905883789062 1204.610961914062 385.6597290039062 1206.785034179688 384.936279296875 1209.585205078125 C 384.3150024414062 1211.989868164062 384 1214.821044921875 384 1218 C 384 1226.78271484375 386.3301086425781 1230.930908203125 388.2847900390625 1232.8642578125 C 391.0205078125 1235.569946289062 396.1089477539062 1237.000122070312 403 1237.000122070312 C 407.8409729003906 1237.000122070312 414.3454284667969 1236.2607421875 417.8411865234375 1232.73828125 C 420.5619812011719 1229.996704101562 422.0000915527344 1224.900268554688 422.0000915527344 1218 C 422.0000915527344 1213.171142578125 421.2681579589844 1206.683959960938 417.78125 1203.201416015625 C 414.3040161132812 1199.728881835938 407.8238525390625 1199 403 1199 M 403 1197 C 408.7940979003906 1197 415.3948974609375 1197.991821289062 419.1944885253906 1201.786254882812 C 423.0003051757812 1205.587280273438 424.0000915527344 1212.196044921875 424.0000915527344 1218 C 424.0000915527344 1223.770141601562 423.027587890625 1230.351440429688 419.2608032226562 1234.147094726562 C 415.4560852050781 1237.980834960938 408.8277893066406 1239.000122070312 403 1239.000122070312 C 397.2428894042969 1239.000122070312 390.6719970703125 1238.038208007812 386.8783874511719 1234.286254882812 C 383.0296936035156 1230.479614257812 382 1223.840942382812 382 1218 C 382 1212.152099609375 383.0354919433594 1205.507690429688 386.8923950195312 1201.700073242188 C 390.6846923828125 1197.956298828125 397.2497863769531 1197 403 1197 Z"/></g><path class="b" d="M412.594,1209.851a8.258,8.258,0,0,1-2.647,1.037,4.106,4.106,0,0,0-3.04-1.35,4.221,4.221,0,0,0-4.167,4.273,4.415,4.415,0,0,0,.108.973,11.732,11.732,0,0,1-8.587-4.465,4.351,4.351,0,0,0,1.29,5.7,4.084,4.084,0,0,1-1.887-.536v.053a4.253,4.253,0,0,0,3.341,4.191,4.057,4.057,0,0,1-1.882.072,4.188,4.188,0,0,0,3.891,2.968,8.228,8.228,0,0,1-5.174,1.828,8.566,8.566,0,0,1-.994-.058,11.586,11.586,0,0,0,6.387,1.92c7.663,0,11.853-6.512,11.853-12.158l-.014-.554a8.508,8.508,0,0,0,2.082-2.209,8.168,8.168,0,0,1-2.392.673A4.279,4.279,0,0,0,412.594,1209.851Z"/><g class="a"><path class="c" d="M 458 1238.000122070312 C 454.7645263671875 1238.000122070312 451.8863830566406 1237.690551757812 449.4454956054688 1237.080078125 C 446.4966430664062 1236.342529296875 444.1873168945312 1235.163330078125 442.5816955566406 1233.575317382812 C 438.7948913574219 1229.829956054688 438 1223.0380859375 438 1218 C 438 1212.9580078125 438.7971801757812 1206.160888671875 442.5949401855469 1202.411743164062 C 444.1997375488281 1200.827514648438 446.5075073242188 1199.651489257812 449.4541320800781 1198.916381835938 C 451.8914794921875 1198.308349609375 454.7667236328125 1198 458 1198 C 461.2466430664062 1198 464.1399230957031 1198.316162109375 466.5995178222656 1198.939575195312 C 469.5601501464844 1199.690063476562 471.8777160644531 1200.885864257812 473.4878540039062 1202.493896484375 C 477.2171936035156 1206.218383789062 478 1212.98193359375 478 1218 C 478 1221.239379882812 477.6881713867188 1224.122802734375 477.0731506347656 1226.5703125 C 476.3310852050781 1229.523193359375 475.1460571289062 1231.83544921875 473.5509948730469 1233.442749023438 C 469.8128967285156 1237.20947265625 463.0310363769531 1238.000122070312 458 1238.000122070312 Z"/><path class="d" d="M 458 1199 C 451.1141052246094 1199 446.030029296875 1200.42578125 443.2974548339844 1203.123413085938 C 441.7905578613281 1204.610961914062 440.65966796875 1206.785034179688 439.9362487792969 1209.585205078125 C 439.3150024414062 1211.989868164062 439 1214.820922851562 439 1218 C 439 1226.78271484375 441.3301391601562 1230.930908203125 443.284912109375 1232.8642578125 C 446.0205688476562 1235.569946289062 451.1089477539062 1237.000122070312 458 1237.000122070312 C 462.8410339355469 1237.000122070312 469.3455505371094 1236.2607421875 472.8412170410156 1232.73828125 C 475.5619201660156 1229.996826171875 477 1224.900390625 477 1218 C 477 1213.171020507812 476.26806640625 1206.683837890625 472.7812194824219 1203.201416015625 C 469.3040771484375 1199.728881835938 462.8239135742188 1199 458 1199 M 458 1197 C 463.7940979003906 1197 470.3949890136719 1197.991821289062 474.1944885253906 1201.786254882812 C 478.0003967285156 1205.587280273438 479 1212.196044921875 479 1218 C 479 1223.770141601562 478.0277099609375 1230.351440429688 474.2608032226562 1234.147094726562 C 470.4562072753906 1237.980834960938 463.8279113769531 1239.000122070312 458 1239.000122070312 C 452.2427978515625 1239.000122070312 445.6719970703125 1238.038208007812 441.8785095214844 1234.286254882812 C 438.0296936035156 1230.479614257812 437 1223.840942382812 437 1218 C 437 1212.152099609375 438.035400390625 1205.507690429688 441.8923950195312 1201.700073242188 C 445.684814453125 1197.956298828125 452.2499084472656 1197 458 1197 Z"/></g><path class="b" d="M464.47,1209.63q-4.212-.139-5.7,4.775a3.882,3.882,0,0,1,1.5-.321q1.536,0,1.356,1.745a7.98,7.98,0,0,1-1.356,3.077q-1.271,2.022-1.9,2.021-.819,0-1.5-3.122-.228-.919-.814-4.685-.548-3.49-2.9-3.261a6.656,6.656,0,0,0-2.984,1.837q-1.452,1.332-2.946,2.664l.95,1.239a6.255,6.255,0,0,1,1.584-.964q1.043,0,1.948,3.3.812,3.034,1.632,6.063c.81,2.2,1.81,3.307,2.984,3.307q2.851,0,6.972-5.418,3.982-5.188,4.118-8.175Q467.595,1209.722,464.47,1209.63Z"/></g></svg>