<svg xmlns="http://www.w3.org/2000/svg" xmlns:xlink="http://www.w3.org/1999/xlink" width="151.933" height="42" viewBox="0 0 151.933 42"><defs><style>.a{fill:url(#a);}.b,.d{fill:#fff;}.b{stroke:rgba(0,0,0,0);}.c{fill:#3e5a99;}.e{fill:#33a2f3;}</style><radialGradient id="a" cx="-4.542" cy="53.438" r="91.043" gradientTransform="translate(-0.219 5.019) scale(0.952 0.906)" gradientUnits="userSpaceOnUse"><stop offset="0" stop-color="#f9ed41"/><stop offset="0.241" stop-color="#ff833d"/><stop offset="0.401" stop-color="#ee5468"/><stop offset="0.489" stop-color="#e7407b"/><stop offset="1" stop-color="#0028ff"/></radialGradient></defs><g transform="translate(-272.067 -1197)"><rect class="a" width="41.569" height="39.569" rx="13" transform="translate(272.067 1197.728)"/><circle class="b" cx="3" cy="3" r="3" transform="translate(290 1215)"/><path class="b" d="M296.75,1228h-7.5a6.257,6.257,0,0,1-6.251-6.25v-7.5a6.258,6.258,0,0,1,6.251-6.25h7.5a6.258,6.258,0,0,1,6.25,6.25v7.5A6.257,6.257,0,0,1,296.75,1228ZM293,1213a5,5,0,1,0,5,5A5.006,5.006,0,0,0,293,1213Zm5-2v2h2v-2Z"/><path class="c" d="M348,1197c5.794,0,12.4.992,16.194,4.786S369,1212.2,369,1218c0,5.77-.972,12.351-4.739,16.147-3.8,3.834-10.433,4.853-16.261,4.853-5.757,0-12.328-.962-16.122-4.714C328.03,1230.48,327,1223.841,327,1218s1.036-12.492,4.892-16.3C335.685,1197.956,342.25,1197,348,1197Z"/><path class="d" d="M353.509,1207.85l-2.638,0a4.629,4.629,0,0,0-4.879,5v2.3h-2.653a.415.415,0,0,0-.415.414v3.339a.415.415,0,0,0,.415.414h2.653v8.425a.414.414,0,0,0,.415.414h3.461a.414.414,0,0,0,.415-.414v-8.425h3.1a.414.414,0,0,0,.415-.414v-3.339a.415.415,0,0,0-.415-.414h-3.1v-1.953c0-.939.224-1.416,1.449-1.416h1.777a.414.414,0,0,0,.415-.414v-3.1A.415.415,0,0,0,353.509,1207.85Z"/><path class="e" d="M403,1197c5.794,0,12.395.992,16.194,4.786S424,1212.2,424,1218c0,5.77-.973,12.351-4.739,16.147-3.8,3.834-10.433,4.853-16.261,4.853-5.757,0-12.328-.962-16.122-4.714C383.03,1230.48,382,1223.841,382,1218s1.035-12.492,4.892-16.3C390.685,1197.956,397.25,1197,403,1197Z"/><path class="d" d="M412.594,1209.851a8.258,8.258,0,0,1-2.647,1.037,4.106,4.106,0,0,0-3.04-1.35,4.221,4.221,0,0,0-4.167,4.273,4.415,4.415,0,0,0,.108.973,11.732,11.732,0,0,1-8.587-4.465,4.351,4.351,0,0,0,1.29,5.7,4.084,4.084,0,0,1-1.887-.536v.053a4.253,4.253,0,0,0,3.341,4.191,4.057,4.057,0,0,1-1.882.072,4.188,4.188,0,0,0,3.891,2.968,8.228,8.228,0,0,1-5.174,1.828,8.566,8.566,0,0,1-.994-.058,11.586,11.586,0,0,0,6.387,1.92c7.663,0,11.853-6.512,11.853-12.158l-.014-.554a8.508,8.508,0,0,0,2.082-2.209,8.168,8.168,0,0,1-2.392.673A4.279,4.279,0,0,0,412.594,1209.851Z"/></g></svg>